0
SECTION
2
HEADER
9
$INSUNITS
70
4
9
$ACADVER
1
AC1014
9
$HANDSEED
5
FFFF
0
ENDSEC
0
SECTION
2
TABLES
0
TABLE
2
VPORT
5
8
100
AcDbSymbolTable
0
ENDTAB
0
TABLE
2
LTYPE
5
5
100
AcDbSymbolTable
0
LTYPE
5
14
100
AcDbSymbolTableRecord
100
AcDbLinetypeTableRecord
2
BYBLOCK
70
0
0
LTYPE
5
15
100
AcDbSymbolTableRecord
100
AcDbLinetypeTableRecord
2
BYLAYER
70
0
0
LTYPE
5
16
100
AcDbSymbolTableRecord
100
AcDbLinetypeTableRecord
2
DASHED
70
0
3
Dashed __ __ __ __ __ __ __ __ __ __ __ __ __ _
72
65
73
2
40
0.75
49
0.5
74
0
49
-0.25
74
0
0
ENDTAB
0
TABLE
2
LAYER
5
2
100
AcDbSymbolTable
70
2
0
LAYER
5
50
100
AcDbSymbolTableRecord
100
AcDbLayerTableRecord
2
0
70
0
62
7
6
CONTINUOUS
0
ENDTAB
0
TABLE
2
STYLE
5
3
100
AcDbSymbolTable
70
1
0
STYLE
5
11
100
AcDbSymbolTableRecord
100
AcDbTextStyleTableRecord
2
STANDARD
70
0
0
ENDTAB
0
TABLE
2
VIEW
5
6
100
AcDbSymbolTable
70
0
0
ENDTAB
0
TABLE
2
UCS
5
7
100
AcDbSymbolTable
70
0
0
ENDTAB
0
TABLE
2
APPID
5
9
100
AcDbSymbolTable
70
2
0
APPID
5
12
100
AcDbSymbolTableRecord
100
AcDbRegAppTableRecord
2
ACAD
70
0
0
ENDTAB
0
TABLE
2
DIMSTYLE
5
A
100
AcDbSymbolTable
70
1
0
ENDTAB
0
TABLE
2
BLOCK_RECORD
5
1
100
AcDbSymbolTable
70
1
0
BLOCK_RECORD
5
1F
100
AcDbSymbolTableRecord
100
AcDbBlockTableRecord
2
*MODEL_SPACE
0
BLOCK_RECORD
5
1B
100
AcDbSymbolTableRecord
100
AcDbBlockTableRecord
2
*PAPER_SPACE
0
ENDTAB
0
ENDSEC
0
SECTION
2
BLOCKS
0
BLOCK
5
20
100
AcDbEntity
100
AcDbBlockBegin
2
*MODEL_SPACE
0
ENDBLK
5
21
100
AcDbEntity
100
AcDbBlockEnd
0
BLOCK
5
1C
100
AcDbEntity
100
AcDbBlockBegin
2
*PAPER_SPACE
0
ENDBLK
5
1D
100
AcDbEntity
100
AcDbBlockEnd
0
ENDSEC
0
SECTION
2
ENTITIES
0
POINT
5
100
100
AcDbEntity
8
0
100
AcDbPoint
10
0
20
0
30
0
0
POINT
5
101
100
AcDbEntity
8
0
100
AcDbPoint
10
-504.79999997773677
20
-1.6975099421448089e-07
30
0
0
POINT
5
102
100
AcDbEntity
8
0
100
AcDbPoint
10
-504.7999999777366
20
135.6499998302491
30
0
0
POINT
5
103
100
AcDbEntity
8
0
100
AcDbPoint
10
-504.7999999777366
20
-135.64999962891895
30
0
0
POINT
5
104
100
AcDbEntity
8
0
100
AcDbPoint
10
4.0381440310095611e-07
20
135.6500000201313
30
0
0
POINT
5
105
100
AcDbEntity
8
0
100
AcDbPoint
10
4.2041678097522844e-07
20
-135.64999990425369
30
0
0
POINT
5
106
100
AcDbEntity
8
0
100
AcDbPoint
10
0
20
0
30
0
0
POINT
5
107
100
AcDbEntity
8
0
100
AcDbPoint
10
-132.40000014716856
20
622.70000008373927
30
0
0
POINT
5
108
100
AcDbEntity
8
0
100
AcDbPoint
10
-0.25000010448039928
20
622.70000010448905
30
0
0
POINT
5
109
100
AcDbEntity
8
0
100
AcDbPoint
10
2.2226331359305549e-08
20
486.80000001793974
30
0
0
POINT
5
110
100
AcDbEntity
8
0
100
AcDbPoint
10
-132.39999997824549
20
350.90000001789343
30
0
0
POINT
5
111
100
AcDbEntity
8
0
100
AcDbPoint
10
132.39999995765811
20
350.89999995980361
30
0
0
POINT
5
112
100
AcDbEntity
8
0
100
AcDbPoint
10
132.31286204524673
20
622.72622850766015
30
0
0
POINT
5
113
100
AcDbEntity
8
0
100
AcDbPoint
10
-595.29055046074836
20
350.90000000006171
30
0
0
POINT
5
114
100
AcDbEntity
8
0
100
AcDbPoint
10
-330.49055045728863
20
350.89999999995428
30
0
0
POINT
5
115
100
AcDbEntity
8
0
100
AcDbPoint
10
-595.29055046328915
20
622.70000000001812
30
0
0
POINT
5
116
100
AcDbEntity
8
0
100
AcDbPoint
10
-463.14055045296857
20
622.7000000000985
30
0
0
POINT
5
117
100
AcDbEntity
8
0
100
AcDbPoint
10
-330.31021422833368
20
622.64621112958594
30
0
0
POINT
5
118
100
AcDbEntity
8
0
100
AcDbPoint
10
-462.89055046044678
20
486.8000000000751
30
0
0
POINT
5
119
100
AcDbEntity
8
0
100
AcDbPoint
10
372.40000126029474
20
-149.20801518182944
30
0
0
POINT
5
120
100
AcDbEntity
8
0
100
AcDbPoint
10
504.80000002222641
20
4.6919847465108822
30
0
0
POINT
5
121
100
AcDbEntity
8
0
100
AcDbPoint
10
372.40000002245523
20
158.5919847460695
30
0
0
POINT
5
122
100
AcDbEntity
8
0
100
AcDbPoint
10
504.550000022478
20
158.59198474601075
30
0
0
POINT
5
123
100
AcDbEntity
8
0
100
AcDbPoint
10
637.20000002272491
20
-149.2080152536553
30
0
0
POINT
5
124
100
AcDbEntity
8
0
100
AcDbPoint
10
637.2000000215038
20
158.59198474621866
30
0
0
POINT
5
125
100
AcDbEntity
8
0
100
AcDbPoint
10
369.1499970570556
20
-127.45801612384022
30
0
0
POINT
5
126
100
AcDbEntity
8
0
100
AcDbPoint
10
367.40000002226338
20
4.6919847097067624
30
0
0
POINT
5
127
100
AcDbEntity
8
0
100
AcDbPoint
10
369.14999919493641
20
136.84198395542023
30
0
0
POINT
5
128
100
AcDbEntity
8
0
100
AcDbPoint
10
640.45000002225891
20
136.84198478326823
30
0
0
POINT
5
129
100
AcDbEntity
8
0
100
AcDbPoint
10
640.45000002230711
20
4.6919847095103364
30
0
0
POINT
5
130
100
AcDbEntity
8
0
100
AcDbPoint
10
640.45000002234485
20
-127.45801529049011
30
0
0
POINT
5
131
100
AcDbEntity
8
0
100
AcDbPoint
10
640.45000002230051
20
509.49198474642969
30
0
0
POINT
5
132
100
AcDbEntity
8
0
100
AcDbPoint
10
640.45000002229381
20
641.64198474654825
30
0
0
POINT
5
133
100
AcDbEntity
8
0
100
AcDbPoint
10
367.40000002225082
20
509.49198474646926
30
0
0
POINT
5
134
100
AcDbEntity
8
0
100
AcDbPoint
10
640.45000002229335
20
377.3419847464379
30
0
0
POINT
5
135
100
AcDbEntity
8
0
100
AcDbPoint
10
369.15000002225077
20
377.34198474646917
30
0
0
POINT
5
136
100
AcDbEntity
8
0
100
AcDbPoint
10
372.40000002225685
20
355.59198474652101
30
0
0
POINT
5
137
100
AcDbEntity
8
0
100
AcDbPoint
10
504.80000002221186
20
509.49198474650251
30
0
0
POINT
5
138
100
AcDbEntity
8
0
100
AcDbPoint
10
372.40000001030273
20
663.39198475023136
30
0
0
POINT
5
139
100
AcDbEntity
8
0
100
AcDbPoint
10
504.55000002222391
20
663.39198475362059
30
0
0
POINT
5
140
100
AcDbEntity
8
0
100
AcDbPoint
10
637.2000000227215
20
355.59198474634348
30
0
0
POINT
5
141
100
AcDbEntity
8
0
100
AcDbPoint
10
637.20000002291738
20
663.39198474634873
30
0
0
POINT
5
142
100
AcDbEntity
8
0
100
AcDbPoint
10
369.1500000222556
20
641.64198474660361
30
0
0
LWPOLYLINE
5
143
100
AcDbEntity
8
0
100
AcDbPolyline
90
4
70
1
43
0.0
10
-377.89999997773634
20
133.8999998302491
10
-377.89999997773634
20
137.3999998302491
10
-367.39999997773623
20
137.3999998302491
10
-367.39999997773623
20
133.8999998302491
0
LWPOLYLINE
5
144
100
AcDbEntity
8
0
100
AcDbPolyline
90
4
70
1
43
0.0
10
-631.69999997773664
20
137.39999983024913
10
-631.69999997773664
20
133.89999983024916
10
-642.19999997773675
20
133.89999983024916
10
-642.19999997773675
20
137.39999983024913
0
LWPOLYLINE
5
145
100
AcDbEntity
8
0
100
AcDbPolyline
90
4
70
1
43
0.0
10
-642.19999997773675
20
-133.89999915994881
10
-631.69999997773652
20
-133.89999915994952
10
-631.69999997773675
20
-137.39999915994949
10
-642.19999997773675
20
-137.39999915994881
0
LINE
5
146
100
AcDbEntity
8
0
100
AcDbLine
10
-657.19999997773675
20
152.39999983024913
30
0
11
-352.39999997773668
21
152.39999983024916
31
0
0
LINE
5
147
100
AcDbEntity
8
0
100
AcDbLine
10
-352.39999997773668
20
-152.40000016975091
30
0
11
-657.19999997773675
21
152.39999983024913
31
0
6
DASHED
0
LINE
5
148
100
AcDbEntity
8
0
100
AcDbLine
10
-352.39999997773668
20
152.39999983024916
30
0
11
-352.39999997773668
21
-152.40000016975091
31
0
0
LINE
5
149
100
AcDbEntity
8
0
100
AcDbLine
10
-657.19999997773687
20
-152.40000016975091
30
0
11
-657.19999997773675
21
152.39999983024913
31
0
0
LINE
5
150
100
AcDbEntity
8
0
100
AcDbLine
10
-657.19999997773687
20
-152.40000016975091
30
0
11
-352.39999997773668
21
152.39999983024916
31
0
6
DASHED
0
LWPOLYLINE
5
151
100
AcDbEntity
8
0
100
AcDbPolyline
90
4
70
1
43
0.0
10
-367.40000124153983
20
-137.39999962891943
10
-377.8999999777372
20
-137.39999962891937
10
-377.89999997773742
20
-133.89999962891943
10
-367.39999997773731
20
-133.89999962891892
0
LINE
5
152
100
AcDbEntity
8
0
100
AcDbLine
10
-352.39999997773668
20
-152.40000016975091
30
0
11
-657.19999997773687
21
-152.40000016975091
31
0
0
LWPOLYLINE
5
153
100
AcDbEntity
8
0
100
AcDbPolyline
90
4
70
1
43
0.0
10
-499.5499999777366
20
133.8999998302491
10
-510.04999997773666
20
133.89999983024913
10
-510.04999997773666
20
137.39999983024913
10
-499.5499999777366
20
137.3999998302491
0
LINE
5
154
100
AcDbEntity
8
0
100
AcDbLine
10
-499.5499999777366
20
133.8999998302491
30
0
11
-510.04999997773666
21
137.39999983024913
31
0
6
DASHED
0
LINE
5
155
100
AcDbEntity
8
0
100
AcDbLine
10
-510.04999997773666
20
133.89999983024913
30
0
11
-499.5499999777366
21
137.3999998302491
31
0
6
DASHED
0
LWPOLYLINE
5
156
100
AcDbEntity
8
0
100
AcDbPolyline
90
4
70
1
43
0.0
10
-499.54999997773655
20
-137.39999962891892
10
-510.04999997773666
20
-137.39999962891898
10
-510.04999997773666
20
-133.89999962891898
10
-499.54999997773655
20
-133.89999962891898
0
LINE
5
157
100
AcDbEntity
8
0
100
AcDbLine
10
-499.54999997773655
20
-137.39999962891892
30
0
11
-510.04999997773666
21
-133.89999962891898
31
0
6
DASHED
0
LINE
5
158
100
AcDbEntity
8
0
100
AcDbLine
10
-510.04999997773666
20
-137.39999962891898
30
0
11
-499.54999997773655
21
-133.89999962891898
31
0
6
DASHED
0
LWPOLYLINE
5
159
100
AcDbEntity
8
0
100
AcDbPolyline
90
4
70
1
43
0.0
10
-126.89999997773668
20
137.39999997773674
10
-126.89999997773668
20
133.89999997773674
10
-137.39999997773663
20
133.89999997773674
10
-137.39999997773668
20
137.39999997773671
0
LWPOLYLINE
5
160
100
AcDbEntity
8
0
100
AcDbPolyline
90
4
70
1
43
0.0
10
126.90000002226348
20
133.89999997773671
10
126.90000002226348
20
137.39999997773671
10
137.40000002226344
20
137.39999997773668
10
137.39999914664796
20
133.89999997773668
0
LWPOLYLINE
5
161
100
AcDbEntity
8
0
100
AcDbPolyline
90
4
70
1
43
0.0
10
137.40000002226407
20
-133.89999997058075
10
137.40000002226412
20
-137.39999997058044
10
126.90000002226425
20
-137.39999997058044
10
126.90000002226412
20
-133.8999999705805
0
LWPOLYLINE
5
162
100
AcDbEntity
8
0
100
AcDbPolyline
90
4
70
1
43
0.0
10
-5.2499994690018639
20
137.39999997773671
10
5.2500005309981432
20
137.39999997773671
10
5.2500005309981539
20
133.89999997773677
10
-5.2499999777366142
20
133.89999997773677
0
LWPOLYLINE
5
163
100
AcDbEntity
8
0
100
AcDbPolyline
90
4
70
1
43
0.0
10
5.2500005531345391
20
-137.3999999484929
10
-5.2499999777365858
20
-137.3999999484929
10
-5.2499994468654059
20
-133.89999994849293
10
5.2500005531345559
20
-133.89999994849296
0
LINE
5
164
100
AcDbEntity
8
0
100
AcDbLine
10
152.40000002226338
20
152.40000006679023
30
0
11
152.40000002226341
21
-152.40000002226333
31
0
0
LINE
5
165
100
AcDbEntity
8
0
100
AcDbLine
10
-152.39999997773663
20
-152.40000002226333
30
0
11
-152.39999997773666
21
152.39999997773674
31
0
0
LINE
5
166
100
AcDbEntity
8
0
100
AcDbLine
10
-5.2499999777366142
20
133.89999997773677
30
0
11
5.2500005309981432
21
137.39999997773671
31
0
6
DASHED
0
LINE
5
167
100
AcDbEntity
8
0
100
AcDbLine
10
152.40000002226341
20
-152.40000002226333
30
0
11
-152.39999997773666
21
152.39999997773674
31
0
6
DASHED
0
LINE
5
168
100
AcDbEntity
8
0
100
AcDbLine
10
5.2500005309981539
20
133.89999997773677
30
0
11
-5.2499994690018639
21
137.39999997773671
31
0
6
DASHED
0
LWPOLYLINE
5
169
100
AcDbEntity
8
0
100
AcDbPolyline
90
4
70
1
43
0.0
10
-126.89999947054567
20
-133.89999988452499
10
-126.89999947054585
20
-137.3999998845249
10
-137.39999997773663
20
-137.39999988452428
10
-137.39999947054562
20
-133.89999988452431
0
LINE
5
170
100
AcDbEntity
8
0
100
AcDbLine
10
152.40000002226341
20
-152.40000002226333
30
0
11
-152.39999997773663
21
-152.40000002226333
31
0
0
LINE
5
171
100
AcDbEntity
8
0
100
AcDbLine
10
5.2500005531345391
20
-137.3999999484929
30
0
11
-5.2499994468654059
21
-133.89999994849293
31
0
6
DASHED
0
LINE
5
172
100
AcDbEntity
8
0
100
AcDbLine
10
-152.39999997773666
20
152.39999997773674
30
0
11
152.40000002226338
21
152.40000006679023
31
0
0
LINE
5
173
100
AcDbEntity
8
0
100
AcDbLine
10
-152.39999997773663
20
-152.40000002226333
30
0
11
152.40000002226338
21
152.40000006679023
31
0
6
DASHED
0
LINE
5
174
100
AcDbEntity
8
0
100
AcDbLine
10
-5.2499999777365858
20
-137.3999999484929
30
0
11
5.2500005531345559
21
-133.89999994849296
31
0
6
DASHED
0
LINE
5
175
100
AcDbEntity
8
0
100
AcDbLine
10
137.40000002225256
20
349.39999994040488
30
0
11
127.40000002225288
21
352.3999999404457
31
0
6
DASHED
0
LINE
5
176
100
AcDbEntity
8
0
100
AcDbLine
10
137.4000000222529
20
352.40000001791805
30
0
11
137.40000002225256
21
349.39999994040488
31
0
0
LINE
5
177
100
AcDbEntity
8
0
100
AcDbLine
10
4.7499995183070176
20
352.39999997773674
30
0
11
127.40000002225288
21
352.3999999404457
31
0
0
LINE
5
178
100
AcDbEntity
8
0
100
AcDbLine
10
-5.250000071675025
20
349.40000010074021
30
0
11
4.7499999283186165
21
352.40000010074021
31
0
6
DASHED
0
LINE
5
179
100
AcDbEntity
8
0
100
AcDbLine
10
-137.39999997816798
20
349.4000000179156
30
0
11
-137.40000007208056
21
352.40000001791554
31
0
0
LINE
5
180
100
AcDbEntity
8
0
100
AcDbLine
10
-5.250000071675025
20
349.40000010074021
30
0
11
-5.2500000716750232
21
352.4000000179168
31
0
0
LINE
5
181
100
AcDbEntity
8
0
100
AcDbLine
10
-152.40000007167475
20
352.40000001791543
30
0
11
-137.40000007208056
21
352.40000001791554
31
0
0
LINE
5
182
100
AcDbEntity
8
0
100
AcDbLine
10
-137.39999997816798
20
349.4000000179156
30
0
11
-127.39999997817469
21
352.40000001791566
31
0
6
DASHED
0
LINE
5
183
100
AcDbEntity
8
0
100
AcDbLine
10
-127.39999997817434
20
349.40000001782863
30
0
11
-137.40000007208056
21
352.40000001791554
31
0
6
DASHED
0
LINE
5
184
100
AcDbEntity
8
0
100
AcDbLine
10
137.4000000222529
20
352.40000001791805
30
0
11
152.40000002226338
21
352.40000001791833
31
0
0
LINE
5
185
100
AcDbEntity
8
0
100
AcDbLine
10
127.40000002225266
20
349.39999994044575
30
0
11
127.40000002225288
21
352.3999999404457
31
0
0
LINE
5
186
100
AcDbEntity
8
0
100
AcDbLine
10
127.40000002225266
20
349.39999994044575
30
0
11
137.4000000222529
21
352.40000001791805
31
0
6
DASHED
0
LINE
5
187
100
AcDbEntity
8
0
100
AcDbLine
10
4.7499999283186103
20
349.40000010074021
30
0
11
-5.2500000716750232
21
352.4000000179168
31
0
6
DASHED
0
LINE
5
188
100
AcDbEntity
8
0
100
AcDbLine
10
137.40000002225256
20
349.39999994040488
30
0
11
127.40000002225266
21
349.39999994044575
31
0
0
LINE
5
189
100
AcDbEntity
8
0
100
AcDbLine
10
152.40000002226338
20
352.40000001791833
30
0
11
152.40000002224144
21
621.2000001008156
31
0
0
LINE
5
190
100
AcDbEntity
8
0
100
AcDbLine
10
-127.39999997817469
20
352.40000001791566
30
0
11
-5.2500000716750232
21
352.4000000179168
31
0
0
LINE
5
191
100
AcDbEntity
8
0
100
AcDbLine
10
4.7499999283186165
20
352.40000010074021
30
0
11
4.7499999283186103
21
349.40000010074021
31
0
0
LINE
5
192
100
AcDbEntity
8
0
100
AcDbLine
10
-5.2500001168513055
20
621.20000010077672
30
0
11
4.7499998831485222
21
624.20000010077911
31
0
6
DASHED
0
LINE
5
193
100
AcDbEntity
8
0
100
AcDbLine
10
4.7499998831586163
20
621.20000010077911
30
0
11
-5.2500001168513055
21
624.20000011561842
31
0
6
DASHED
0
LINE
5
194
100
AcDbEntity
8
0
100
AcDbLine
10
127.40057014562962
20
621.20000010080946
30
0
11
127.40057014496172
21
624.20000010080923
31
0
0
LINE
5
195
100
AcDbEntity
8
0
100
AcDbLine
10
127.40057014496172
20
624.20000010080923
30
0
11
137.4000000222421
21
624.3067808544514
31
0
0
LINE
5
196
100
AcDbEntity
8
0
100
AcDbLine
10
137.4000000222421
20
624.3067808544514
30
0
11
137.40000002225511
21
621.20000010081196
31
0
0
LINE
5
197
100
AcDbEntity
8
0
100
AcDbLine
10
-137.40000006574786
20
621.20000010074295
30
0
11
-152.40000007167509
21
621.2000001007392
31
0
0
LINE
5
198
100
AcDbEntity
8
0
100
AcDbLine
10
-5.2500001168513055
20
624.20000011561842
30
0
11
4.7499998831485222
21
624.20000010077911
31
0
0
LINE
5
199
100
AcDbEntity
8
0
100
AcDbLine
10
-127.40000006574783
20
624.20000011558818
30
0
11
-127.40000006587991
21
621.20000010074637
31
0
0
LINE
5
200
100
AcDbEntity
8
0
100
AcDbLine
10
-5.2500001168513055
20
621.20000010077672
30
0
11
-5.2500001168513055
21
624.20000011561842
31
0
0
LINE
5
201
100
AcDbEntity
8
0
100
AcDbLine
10
4.7499998831485222
20
624.20000010077911
30
0
11
4.7499998831586163
21
621.20000010077911
31
0
0
LINE
5
202
100
AcDbEntity
8
0
100
AcDbLine
10
-137.40000006574786
20
621.20000010074295
30
0
11
-127.40000006574783
21
624.20000011558818
31
0
6
DASHED
0
LINE
5
203
100
AcDbEntity
8
0
100
AcDbLine
10
-137.40000006574786
20
624.20000001791948
30
0
11
-127.40000006574783
21
624.20000011558818
31
0
0
LINE
5
204
100
AcDbEntity
8
0
100
AcDbLine
10
152.40000002224144
20
621.2000001008156
30
0
11
137.40000002225511
21
621.20000010081196
31
0
0
LINE
5
205
100
AcDbEntity
8
0
100
AcDbLine
10
-5.2500001168513055
20
621.20000010077672
30
0
11
-127.40000006587991
21
621.20000010074637
31
0
0
LINE
5
206
100
AcDbEntity
8
0
100
AcDbLine
10
127.40057014562962
20
621.20000010080946
30
0
11
4.7499998831586163
21
621.20000010077911
31
0
0
LINE
5
207
100
AcDbEntity
8
0
100
AcDbLine
10
-127.40000006587991
20
621.20000010074637
30
0
11
-137.40000006574786
21
624.20000001791948
31
0
6
DASHED
0
LINE
5
208
100
AcDbEntity
8
0
100
AcDbLine
10
-137.40000006574786
20
621.20000010074295
30
0
11
-137.40000006574786
21
624.20000001791948
31
0
0
LINE
5
209
100
AcDbEntity
8
0
100
AcDbLine
10
-152.40000007167509
20
621.2000001007392
30
0
11
152.40000002226338
21
352.40000001791833
31
0
6
DASHED
0
LINE
5
210
100
AcDbEntity
8
0
100
AcDbLine
10
-152.40000007167509
20
621.2000001007392
30
0
11
-152.40000007167475
21
352.40000001791543
31
0
0
LINE
5
211
100
AcDbEntity
8
0
100
AcDbLine
10
4.7499999283186103
20
349.40000010074021
30
0
11
-5.250000071675025
21
349.40000010074021
31
0
0
LINE
5
212
100
AcDbEntity
8
0
100
AcDbLine
10
-127.39999997817434
20
349.40000001782863
30
0
11
-137.39999997816798
21
349.4000000179156
31
0
0
LINE
5
213
100
AcDbEntity
8
0
100
AcDbLine
10
127.40057014562962
20
621.20000010080946
30
0
11
137.4000000222421
21
624.3067808544514
31
0
6
DASHED
0
LINE
5
214
100
AcDbEntity
8
0
100
AcDbLine
10
137.40000002225511
20
621.20000010081196
30
0
11
127.40057014496172
21
624.20000010080923
31
0
6
DASHED
0
LINE
5
215
100
AcDbEntity
8
0
100
AcDbLine
10
152.40000002224144
20
621.2000001008156
30
0
11
-152.40000007167475
21
352.40000001791543
31
0
6
DASHED
0
LINE
5
216
100
AcDbEntity
8
0
100
AcDbLine
10
-127.39999997817469
20
352.40000001791566
30
0
11
-127.39999997817434
21
349.40000001782863
31
0
0
LWPOLYLINE
5
217
100
AcDbEntity
8
0
100
AcDbPolyline
90
4
70
1
43
0.0
10
-620.87499997773671
20
90
10
-535.87499997773671
20
90
10
-535.87499997773671
20
-105
10
-620.87499997773671
20
-105
0
LWPOLYLINE
5
218
100
AcDbEntity
8
0
100
AcDbPolyline
90
4
70
1
43
0.0
10
-399.99999997773659
20
64.999999830249095
10
-449.99999997773659
20
64.999999830248171
10
-449.99999997773659
20
-65.000000169751843
10
-399.99999997773665
20
-65.000000169750919
0
LINE
5
219
100
AcDbEntity
8
0
100
AcDbLine
10
-458.1405504573101
20
349.39999999997565
30
0
11
-468.14055046366036
21
349.40000000005426
31
0
0
LINE
5
220
100
AcDbEntity
8
0
100
AcDbLine
10
-335.48839310935398
20
624.20000000021184
30
0
11
-325.49055045727812
21
623.99229274354741
31
0
0
LINE
5
221
100
AcDbEntity
8
0
100
AcDbLine
10
-468.14055045712684
20
624.20000000021298
30
0
11
-468.14055045712684
21
621.20000000021298
31
0
0
LINE
5
222
100
AcDbEntity
8
0
100
AcDbLine
10
-325.49055045717921
20
352.40000000005682
30
0
11
-310.49055045717927
21
352.40000000005659
31
0
0
LINE
5
223
100
AcDbEntity
8
0
100
AcDbLine
10
-615.29055046366989
20
621.20000000005416
30
0
11
-310.49055045717927
21
352.40000000005659
31
0
6
DASHED
0
LINE
5
224
100
AcDbEntity
8
0
100
AcDbLine
10
-335.49055045716557
20
349.39999999992131
30
0
11
-325.49055045717921
21
352.40000000005682
31
0
6
DASHED
0
LINE
5
225
100
AcDbEntity
8
0
100
AcDbLine
10
-458.14055045726775
20
352.39999999998827
30
0
11
-335.49055045717893
21
352.39999999992131
31
0
0
LINE
5
226
100
AcDbEntity
8
0
100
AcDbLine
10
-458.14055044957433
20
621.20000000021389
30
0
11
-458.14055044957445
21
624.19999999975482
31
0
0
LINE
5
227
100
AcDbEntity
8
0
100
AcDbLine
10
-310.49055045720002
20
621.20000000021184
30
0
11
-615.29055046356245
21
352.40000000005404
31
0
6
DASHED
0
LINE
5
228
100
AcDbEntity
8
0
100
AcDbLine
10
-325.4905504571787
20
349.39999999992131
30
0
11
-335.49055045716557
21
349.39999999992131
31
0
0
LINE
5
229
100
AcDbEntity
8
0
100
AcDbLine
10
-335.4883931093579
20
621.20000000021082
30
0
11
-458.14055044957433
21
621.20000000021378
31
0
0
LINE
5
230
100
AcDbEntity
8
0
100
AcDbLine
10
-600.29055046367182
20
621.20000000006223
30
0
11
-600.29055046367216
21
624.20000000006223
31
0
0
LINE
5
231
100
AcDbEntity
8
0
100
AcDbLine
10
-468.14055046366036
20
349.40000000005426
30
0
11
-468.14055056289237
21
352.40000000005432
31
0
0
LINE
5
232
100
AcDbEntity
8
0
100
AcDbLine
10
-335.4883931093579
20
621.20000000021082
30
0
11
-325.49055045727812
21
623.99229274354741
31
0
6
DASHED
0
LINE
5
233
100
AcDbEntity
8
0
100
AcDbLine
10
-615.29055046356245
20
352.40000000005404
30
0
11
-600.29055046390852
21
352.40000000006103
31
0
0
LINE
5
234
100
AcDbEntity
8
0
100
AcDbLine
10
-590.29055045758389
20
352.40000000006057
30
0
11
-468.14055056289237
21
352.40000000005432
31
0
0
LINE
5
235
100
AcDbEntity
8
0
100
AcDbLine
10
-590.29055046367216
20
624.19999999974425
30
0
11
-590.29055046367068
21
621.20000000020332
31
0
0
LINE
5
236
100
AcDbEntity
8
0
100
AcDbLine
10
-600.29055046391795
20
349.40000000006108
30
0
11
-590.29055045758389
21
352.40000000006057
31
0
6
DASHED
0
LINE
5
237
100
AcDbEntity
8
0
100
AcDbLine
10
-590.29055046367068
20
621.20000000020332
30
0
11
-600.29055046367216
21
624.20000000006223
31
0
6
DASHED
0
LINE
5
238
100
AcDbEntity
8
0
100
AcDbLine
10
-590.29055045758366
20
349.40000000006125
30
0
11
-600.29055046390852
21
352.40000000006103
31
0
6
DASHED
0
LINE
5
239
100
AcDbEntity
8
0
100
AcDbLine
10
-468.14055045712684
20
621.20000000021298
30
0
11
-590.29055046367068
21
621.20000000020332
31
0
0
LINE
5
240
100
AcDbEntity
8
0
100
AcDbLine
10
-590.29055045758389
20
352.40000000006057
30
0
11
-590.29055045758366
21
349.40000000006125
31
0
0
LINE
5
241
100
AcDbEntity
8
0
100
AcDbLine
10
-600.29055046391795
20
349.40000000006108
30
0
11
-600.29055046390852
21
352.40000000006103
31
0
0
LINE
5
242
100
AcDbEntity
8
0
100
AcDbLine
10
-325.49055045727812
20
623.99229274354741
30
0
11
-325.49055045727636
21
621.20000000021059
31
0
0
LINE
5
243
100
AcDbEntity
8
0
100
AcDbLine
10
-335.4883931093579
20
621.20000000021082
30
0
11
-335.48839310935398
21
624.20000000021184
31
0
0
LINE
5
244
100
AcDbEntity
8
0
100
AcDbLine
10
-458.1405504573101
20
352.39999999997565
30
0
11
-458.1405504573101
21
349.39999999997565
31
0
0
LINE
5
245
100
AcDbEntity
8
0
100
AcDbLine
10
-335.49055045716557
20
349.39999999992131
30
0
11
-335.49055045717893
21
352.39999999992131
31
0
0
LINE
5
246
100
AcDbEntity
8
0
100
AcDbLine
10
-458.14055044957433
20
621.20000000021389
30
0
11
-468.14055045712684
21
624.20000000021298
31
0
6
DASHED
0
LINE
5
247
100
AcDbEntity
8
0
100
AcDbLine
10
-600.29055046367182
20
621.20000000006223
30
0
11
-615.29055046366989
21
621.20000000005416
31
0
0
LINE
5
248
100
AcDbEntity
8
0
100
AcDbLine
10
-600.29055046367216
20
624.20000000006223
30
0
11
-590.29055046367216
21
624.19999999974425
31
0
0
LINE
5
249
100
AcDbEntity
8
0
100
AcDbLine
10
-590.29055045758366
20
349.40000000006125
30
0
11
-600.29055046391795
21
349.40000000006108
31
0
0
LINE
5
250
100
AcDbEntity
8
0
100
AcDbLine
10
-615.29055046366989
20
621.20000000005416
30
0
11
-615.29055046356245
21
352.40000000005404
31
0
0
LINE
5
251
100
AcDbEntity
8
0
100
AcDbLine
10
-600.29055046367182
20
621.20000000006223
30
0
11
-590.29055046367216
21
624.19999999974425
31
0
6
DASHED
0
LINE
5
252
100
AcDbEntity
8
0
100
AcDbLine
10
-458.14055044957445
20
624.19999999975482
30
0
11
-468.14055045712684
21
624.20000000021298
31
0
0
LINE
5
253
100
AcDbEntity
8
0
100
AcDbLine
10
-468.14055046366036
20
349.40000000005426
30
0
11
-458.1405504573101
21
352.39999999997565
31
0
6
DASHED
0
LINE
5
254
100
AcDbEntity
8
0
100
AcDbLine
10
-310.49055045717927
20
352.40000000005659
30
0
11
-310.49055045720002
21
621.20000000021184
31
0
0
LINE
5
255
100
AcDbEntity
8
0
100
AcDbLine
10
-310.49055045720002
20
621.20000000021184
30
0
11
-325.49055045727636
21
621.20000000021059
31
0
0
LINE
5
256
100
AcDbEntity
8
0
100
AcDbLine
10
-325.49055045727636
20
621.20000000021059
30
0
11
-335.48839310935398
21
624.20000000021184
31
0
6
DASHED
0
LINE
5
257
100
AcDbEntity
8
0
100
AcDbLine
10
-458.1405504573101
20
349.39999999997565
30
0
11
-468.14055056289237
21
352.40000000005432
31
0
6
DASHED
0
LINE
5
258
100
AcDbEntity
8
0
100
AcDbLine
10
-325.4905504571787
20
349.39999999992131
30
0
11
-335.49055045717893
21
352.39999999992131
31
0
6
DASHED
0
LINE
5
259
100
AcDbEntity
8
0
100
AcDbLine
10
-325.49055045717921
20
352.40000000005682
30
0
11
-325.4905504571787
21
349.39999999992131
31
0
0
LINE
5
260
100
AcDbEntity
8
0
100
AcDbLine
10
-468.14055045712684
20
621.20000000021298
30
0
11
-458.14055044957445
21
624.19999999975482
31
0
6
DASHED
0
LINE
5
261
100
AcDbEntity
8
0
100
AcDbLine
10
377.4000014990674
20
-147.70801525346855
30
0
11
377.40000149906734
21
-150.7080152534613
31
0
0
LINE
5
262
100
AcDbEntity
8
0
100
AcDbLine
10
632.20000002226254
20
160.09198474644907
30
0
11
642.20000002226254
21
160.09198474645069
31
0
0
LINE
5
263
100
AcDbEntity
8
0
100
AcDbLine
10
367.40000002226344
20
157.09198474655071
30
0
11
377.40000002226361
21
160.09198474547338
31
0
6
DASHED
0
LINE
5
264
100
AcDbEntity
8
0
100
AcDbLine
10
632.2000000222838
20
157.09198474644907
30
0
11
632.20000002226254
21
160.09198474644907
31
0
0
LINE
5
265
100
AcDbEntity
8
0
100
AcDbLine
10
499.55000002226325
20
160.09198474594112
30
0
11
509.55000002226365
21
160.09198474595163
31
0
0
LINE
5
266
100
AcDbEntity
8
0
100
AcDbLine
10
642.20000002226254
20
160.09198474645069
30
0
11
642.2000000188915
21
157.09198474654477
31
0
0
LINE
5
267
100
AcDbEntity
8
0
100
AcDbLine
10
499.55000002226342
20
157.09198474594106
30
0
11
499.55000002226325
21
160.09198474594112
31
0
0
LINE
5
268
100
AcDbEntity
8
0
100
AcDbLine
10
509.55000002226365
20
160.09198474595163
30
0
11
509.55000002303007
21
157.09198474597937
31
0
0
LINE
5
269
100
AcDbEntity
8
0
100
AcDbLine
10
367.40000002226344
20
157.09198474655071
30
0
11
352.40000002226333
21
157.09198474655082
31
0
0
LINE
5
270
100
AcDbEntity
8
0
100
AcDbLine
10
501.58696529873828
20
-147.70801525356765
30
0
11
632.20000002265772
21
-147.70801525367091
31
0
0
LINE
5
271
100
AcDbEntity
8
0
100
AcDbLine
10
367.40000002226344
20
157.09198474655071
30
0
11
367.4000000222635
21
160.09198474655057
31
0
0
LINE
5
272
100
AcDbEntity
8
0
100
AcDbLine
10
499.55000002226342
20
157.09198474594106
30
0
11
377.40000002303105
21
157.09198474547341
31
0
0
LINE
5
273
100
AcDbEntity
8
0
100
AcDbLine
10
367.4000000222635
20
160.09198474655057
30
0
11
377.40000002226361
21
160.09198474547338
31
0
0
LINE
5
274
100
AcDbEntity
8
0
100
AcDbLine
10
377.40000002226361
20
160.09198474547338
30
0
11
377.40000002303105
21
157.09198474547341
31
0
0
LINE
5
275
100
AcDbEntity
8
0
100
AcDbLine
10
632.2000000222838
20
157.09198474644907
30
0
11
642.20000002226254
21
160.09198474645069
31
0
6
DASHED
0
LINE
5
276
100
AcDbEntity
8
0
100
AcDbLine
10
642.2000000188915
20
157.09198474654477
30
0
11
632.20000002226254
21
160.09198474644907
31
0
6
DASHED
0
LINE
5
277
100
AcDbEntity
8
0
100
AcDbLine
10
352.40000002226293
20
-147.70801525344933
30
0
11
367.4000014990674
21
-147.7080152534609
31
0
0
LINE
5
278
100
AcDbEntity
8
0
100
AcDbLine
10
642.20000002265783
20
-147.70801525367858
30
0
11
642.20000002266488
21
-150.70801525360139
31
0
0
LINE
5
279
100
AcDbEntity
8
0
100
AcDbLine
10
367.4000005439504
20
-150.70801525346133
30
0
11
377.4000014990674
21
-147.70801525346855
31
0
6
DASHED
0
LINE
5
280
100
AcDbEntity
8
0
100
AcDbLine
10
642.20000002266488
20
-150.70801525360139
30
0
11
632.20000002266136
21
-150.70801525367102
31
0
0
LINE
5
281
100
AcDbEntity
8
0
100
AcDbLine
10
509.55000149467458
20
-148.77120734858227
30
0
11
499.55000053955763
21
-148.77120734858227
31
0
0
LINE
5
282
100
AcDbEntity
8
0
100
AcDbLine
10
509.55000149467458
20
-143.55171500454475
30
0
11
509.55000149467458
21
-148.77120734858227
31
0
0
LINE
5
283
100
AcDbEntity
8
0
100
AcDbLine
10
499.55000053955763
20
-148.77120734858227
30
0
11
509.55000149467458
21
-143.55171500454475
31
0
6
DASHED
0
LINE
5
284
100
AcDbEntity
8
0
100
AcDbLine
10
632.20000002266136
20
-150.70801525367102
30
0
11
642.20000002265783
21
-147.70801525367858
31
0
6
DASHED
0
LINE
5
285
100
AcDbEntity
8
0
100
AcDbLine
10
642.20000002266488
20
-150.70801525360139
30
0
11
632.20000002265772
21
-147.70801525367091
31
0
6
DASHED
0
LINE
5
286
100
AcDbEntity
8
0
100
AcDbLine
10
377.40000149906734
20
-150.7080152534613
30
0
11
367.4000005439504
21
-150.70801525346133
31
0
0
LINE
5
287
100
AcDbEntity
8
0
100
AcDbLine
10
632.20000002266136
20
-150.70801525367102
30
0
11
632.20000002265772
21
-147.70801525367091
31
0
0
LINE
5
288
100
AcDbEntity
8
0
100
AcDbLine
10
509.55000149467458
20
-148.77120734858227
30
0
11
499.55000183262962
21
-145.77120734858249
31
0
6
DASHED
0
LINE
5
289
100
AcDbEntity
8
0
100
AcDbLine
10
642.20000002265783
20
-147.70801525367858
30
0
11
657.20000002235042
21
-147.70801525369012
31
0
0
LINE
5
290
100
AcDbEntity
8
0
100
AcDbLine
10
377.4000014990674
20
-147.70801525346855
30
0
11
506.00602796440523
21
-147.70801525357044
31
0
0
LINE
5
291
100
AcDbEntity
8
0
100
AcDbLine
10
499.55000053955763
20
-148.77120734858227
30
0
11
499.55000183262962
21
-145.77120734858249
31
0
0
LINE
5
292
100
AcDbEntity
8
0
100
AcDbLine
10
657.20000002226345
20
157.0919847465446
30
0
11
352.40000002226293
21
-147.70801525344933
31
0
6
DASHED
0
LINE
5
293
100
AcDbEntity
8
0
100
AcDbLine
10
377.40000149906734
20
-150.7080152534613
30
0
11
367.4000014990674
21
-147.7080152534609
31
0
6
DASHED
0
LINE
5
294
100
AcDbEntity
8
0
100
AcDbLine
10
367.4000005439504
20
-150.70801525346133
30
0
11
367.4000014990674
21
-147.7080152534609
31
0
0
LINE
5
295
100
AcDbEntity
8
0
100
AcDbLine
10
657.20000002235042
20
-147.70801525369012
30
0
11
657.20000002226345
21
157.0919847465446
31
0
0
LINE
5
296
100
AcDbEntity
8
0
100
AcDbLine
10
499.55000002226342
20
157.09198474594106
30
0
11
509.55000002226365
21
160.09198474595163
31
0
6
DASHED
0
LINE
5
297
100
AcDbEntity
8
0
100
AcDbLine
10
377.40000002303105
20
157.09198474547341
30
0
11
367.4000000222635
21
160.09198474655057
31
0
6
DASHED
0
LINE
5
298
100
AcDbEntity
8
0
100
AcDbLine
10
509.55000002303007
20
157.09198474597937
30
0
11
499.55000002226325
21
160.09198474594112
31
0
6
DASHED
0
LINE
5
299
100
AcDbEntity
8
0
100
AcDbLine
10
657.20000002226345
20
157.0919847465446
30
0
11
642.2000000188915
21
157.09198474654477
31
0
0
LINE
5
300
100
AcDbEntity
8
0
100
AcDbLine
10
632.2000000222838
20
157.09198474644907
30
0
11
509.55000002303007
21
157.09198474597937
31
0
0
LINE
5
301
100
AcDbEntity
8
0
100
AcDbLine
10
352.40000002226333
20
157.09198474655082
30
0
11
657.20000002235042
21
-147.70801525369012
31
0
6
DASHED
0
LINE
5
302
100
AcDbEntity
8
0
100
AcDbLine
10
352.40000002226333
20
157.09198474655082
30
0
11
352.40000002226293
21
-147.70801525344933
31
0
0
LWPOLYLINE
5
303
100
AcDbEntity
8
0
100
AcDbPolyline
90
4
70
1
43
0.0
10
370.89999676692992
20
-132.70801525346297
10
367.39999795197718
20
-132.70801517982963
10
367.39999676692997
20
-122.20801525346292
10
370.89999676692997
20
-122.20801525346296
0
LINE
5
304
100
AcDbEntity
8
0
100
AcDbLine
10
370.89999676692992
20
-132.70801525346297
30
0
11
367.39999676692997
21
-122.20801525346292
31
0
6
DASHED
0
LINE
5
305
100
AcDbEntity
8
0
100
AcDbLine
10
367.39999795197718
20
-132.70801517982963
30
0
11
370.89999676692997
21
-122.20801525346296
31
0
6
DASHED
0
LWPOLYLINE
5
306
100
AcDbEntity
8
0
100
AcDbPolyline
90
4
70
1
43
0.0
10
369.15000002225838
20
-0.5580152534616768
10
365.65000002225838
20
-0.5580152534616557
10
365.65000002225815
20
9.9419846729050949
10
369.1500000222785
20
9.9419846729054111
0
LINE
5
307
100
AcDbEntity
8
0
100
AcDbLine
10
369.15000002225838
20
-0.5580152534616768
30
0
11
365.65000002225815
21
9.9419846729050949
31
0
6
DASHED
0
LINE
5
308
100
AcDbEntity
8
0
100
AcDbLine
10
365.65000002225838
20
-0.5580152534616557
30
0
11
369.1500000222785
21
9.9419846729054111
31
0
6
DASHED
0
LWPOLYLINE
5
309
100
AcDbEntity
8
0
100
AcDbPolyline
90
4
70
1
43
0.0
10
370.89999891916739
20
131.59198481957398
10
367.40000002226333
20
131.59198481957401
10
367.39999891914704
20
142.09198474594103
10
370.89999891916739
20
142.09198474594106
0
LINE
5
310
100
AcDbEntity
8
0
100
AcDbLine
10
370.89999891916739
20
131.59198481957398
30
0
11
367.39999891914704
21
142.09198474594103
31
0
6
DASHED
0
LINE
5
311
100
AcDbEntity
8
0
100
AcDbLine
10
367.40000002226333
20
131.59198481957401
30
0
11
370.89999891916739
21
142.09198474594106
31
0
6
DASHED
0
LWPOLYLINE
5
312
100
AcDbEntity
8
0
100
AcDbPolyline
90
4
70
1
43
0.0
10
638.70000002224867
20
131.59198482008384
10
642.20000002226914
20
131.59198482008381
10
642.2000000222688
20
142.09198474645095
10
638.70000002224845
20
142.09198474645092
0
LINE
5
313
100
AcDbEntity
8
0
100
AcDbLine
10
638.70000002224867
20
131.59198482008384
30
0
11
642.2000000222688
21
142.09198474645095
31
0
6
DASHED
0
LINE
5
314
100
AcDbEntity
8
0
100
AcDbLine
10
642.20000002226914
20
131.59198482008381
30
0
11
638.70000002224845
21
142.09198474645092
31
0
6
DASHED
0
LWPOLYLINE
5
315
100
AcDbEntity
8
0
100
AcDbPolyline
90
4
70
1
43
0.0
10
638.70000002230643
20
-0.55801525367207572
10
642.20000002230688
20
-0.55801525367206761
10
642.20000002230665
20
9.9419846726939802
10
638.70000002230654
20
9.9419846726950123
0
LINE
5
316
100
AcDbEntity
8
0
100
AcDbLine
10
638.70000002230643
20
-0.55801525367207572
30
0
11
642.20000002230665
21
9.9419846726939802
31
0
6
DASHED
0
LINE
5
317
100
AcDbEntity
8
0
100
AcDbLine
10
642.20000002230688
20
-0.55801525367206761
30
0
11
638.70000002230654
21
9.9419846726950123
31
0
6
DASHED
0
LWPOLYLINE
5
318
100
AcDbEntity
8
0
100
AcDbPolyline
90
4
70
1
43
0.0
10
642.2000000223444
20
-132.70801525367193
10
638.70000002234474
20
-132.7080152536719
10
638.70000002234474
20
-122.20801532730482
10
642.20000002234451
20
-122.20801532730482
0
LINE
5
319
100
AcDbEntity
8
0
100
AcDbLine
10
642.2000000223444
20
-132.70801525367193
30
0
11
638.70000002234474
21
-122.20801532730482
31
0
6
DASHED
0
LINE
5
320
100
AcDbEntity
8
0
100
AcDbLine
10
638.70000002234474
20
-132.7080152536719
30
0
11
642.20000002234451
21
-122.20801532730482
31
0
6
DASHED
0
LINE
5
321
100
AcDbEntity
8
0
100
AcDbLine
10
657.20000002225095
20
661.89198474654813
30
0
11
642.20000002225288
21
661.89198474654756
31
0
0
LINE
5
322
100
AcDbEntity
8
0
100
AcDbLine
10
638.70000002230154
20
504.24198474643276
30
0
11
642.20000002229438
21
504.24198474644294
31
0
0
LINE
5
323
100
AcDbEntity
8
0
100
AcDbLine
10
367.40000002225042
20
661.89198474653483
30
0
11
377.40000002225094
21
664.89198476109652
31
0
6
DASHED
0
LINE
5
324
100
AcDbEntity
8
0
100
AcDbLine
10
642.20000002228744
20
372.09198474645109
30
0
11
638.70000002229415
21
382.59198474644063
31
0
6
DASHED
0
LWPOLYLINE
5
325
100
AcDbEntity
8
0
100
AcDbPolyline
90
4
70
1
43
0.0
10
365.65000002225071
20
514.7419847464696
10
369.15000002225099
20
514.74198474646937
10
369.15000002225088
20
504.24198474646937
10
365.65000002225082
20
504.24198474646948
0
LINE
5
326
100
AcDbEntity
8
0
100
AcDbLine
10
370.90000002226049
20
636.39198474660373
30
0
11
367.4000000222602
21
646.89198474657542
31
0
6
DASHED
0
LINE
5
327
100
AcDbEntity
8
0
100
AcDbLine
10
632.20000002265374
20
354.09198474632876
30
0
11
632.20000002264942
21
357.09198474632871
31
0
0
LINE
5
328
100
AcDbEntity
8
0
100
AcDbLine
10
499.55000002225086
20
661.89198474657474
30
0
11
509.55000002225086
21
664.89198476068213
31
0
6
DASHED
0
LWPOLYLINE
5
329
100
AcDbEntity
8
0
100
AcDbPolyline
90
4
70
1
43
0.0
10
370.90000002226049
20
636.39198474660373
10
367.40000002225082
20
636.39198474660373
10
367.4000000222602
20
646.89198474657542
10
370.90000002226049
20
646.89198474660373
0
LINE
5
330
100
AcDbEntity
8
0
100
AcDbLine
10
499.55000002225114
20
661.89198474657542
30
0
11
377.4000000214827
21
661.89198474698958
31
0
0
LINE
5
331
100
AcDbEntity
8
0
100
AcDbLine
10
367.40000002225042
20
661.89198474653483
30
0
11
352.40000002225099
21
661.89198474653381
31
0
0
LINE
5
332
100
AcDbEntity
8
0
100
AcDbLine
10
642.20000002229426
20
636.39198474654768
30
0
11
642.20000002229426
21
646.89198474654734
31
0
0
LINE
5
333
100
AcDbEntity
8
0
100
AcDbLine
10
377.40000002225094
20
664.89198476109652
30
0
11
377.4000000214827
21
661.89198474698958
31
0
0
LINE
5
334
100
AcDbEntity
8
0
100
AcDbLine
10
638.70000002229415
20
372.09198474644074
30
0
11
638.70000002229415
21
382.59198474644063
31
0
0
LINE
5
335
100
AcDbEntity
8
0
100
AcDbLine
10
642.20000002265681
20
354.09198474639845
30
0
11
632.20000002264942
21
357.09198474632871
31
0
6
DASHED
0
LINE
5
336
100
AcDbEntity
8
0
100
AcDbLine
10
367.40000002225082
20
636.39198474660373
30
0
11
370.90000002226049
21
646.89198474660373
31
0
6
DASHED
0
LINE
5
337
100
AcDbEntity
8
0
100
AcDbLine
10
509.55000002225148
20
357.09198474641676
30
0
11
509.55000002225097
21
354.09198474642415
31
0
0
LINE
5
338
100
AcDbEntity
8
0
100
AcDbLine
10
499.55000002225086
20
354.09198474642392
30
0
11
499.55000002225114
21
357.09198474642369
31
0
0
LINE
5
339
100
AcDbEntity
8
0
100
AcDbLine
10
638.70000002229415
20
372.09198474644074
30
0
11
642.20000002229426
21
382.59198474644029
31
0
6
DASHED
0
LINE
5
340
100
AcDbEntity
8
0
100
AcDbLine
10
377.4000000214827
20
661.89198474698958
30
0
11
367.40000002225065
21
664.89198474653563
31
0
6
DASHED
0
LINE
5
341
100
AcDbEntity
8
0
100
AcDbLine
10
367.40000002225082
20
372.09198474646973
30
0
11
367.40000002225082
21
382.59198474646973
31
0
0
LINE
5
342
100
AcDbEntity
8
0
100
AcDbLine
10
642.20000002264942
20
357.09198474631705
30
0
11
642.20000002265681
21
354.09198474639845
31
0
0
LINE
5
343
100
AcDbEntity
8
0
100
AcDbLine
10
367.40000002225042
20
661.89198474653483
30
0
11
367.40000002225065
21
664.89198474653563
31
0
0
LINE
5
344
100
AcDbEntity
8
0
100
AcDbLine
10
642.20000002229426
20
382.59198474644029
30
0
11
642.20000002228744
21
372.09198474645109
31
0
0
LINE
5
345
100
AcDbEntity
8
0
100
AcDbLine
10
377.40000002225094
20
354.09198474652277
30
0
11
367.40000002225025
21
357.09198474652277
31
0
6
DASHED
0
LINE
5
346
100
AcDbEntity
8
0
100
AcDbLine
10
509.55000002225097
20
354.09198474642415
30
0
11
499.55000002225114
21
357.09198474642369
31
0
6
DASHED
0
LINE
5
347
100
AcDbEntity
8
0
100
AcDbLine
10
367.40000002225082
20
354.09198474652294
30
0
11
377.40000002225025
21
357.09198474651521
31
0
6
DASHED
0
LINE
5
348
100
AcDbEntity
8
0
100
AcDbLine
10
499.55000002225086
20
354.09198474642392
30
0
11
509.55000002225148
21
357.09198474641676
31
0
6
DASHED
0
LINE
5
349
100
AcDbEntity
8
0
100
AcDbLine
10
632.20000002265374
20
354.09198474632876
30
0
11
642.20000002264942
21
357.09198474631705
31
0
6
DASHED
0
LINE
5
350
100
AcDbEntity
8
0
100
AcDbLine
10
377.40000002225025
20
357.09198474651521
30
0
11
377.40000002225094
21
354.09198474652277
31
0
0
LINE
5
351
100
AcDbEntity
8
0
100
AcDbLine
10
370.90000002225099
20
372.09198474646973
30
0
11
367.40000002225082
21
382.59198474646973
31
0
6
DASHED
0
LINE
5
352
100
AcDbEntity
8
0
100
AcDbLine
10
509.55000002225097
20
354.09198474642415
30
0
11
499.55000002225086
21
354.09198474642392
31
0
0
LINE
5
353
100
AcDbEntity
8
0
100
AcDbLine
10
509.55000002225148
20
357.09198474641676
30
0
11
632.20000002264942
21
357.09198474632871
31
0
0
LINE
5
354
100
AcDbEntity
8
0
100
AcDbLine
10
370.90000002225082
20
382.59198474646962
30
0
11
370.90000002225099
21
372.09198474646973
31
0
0
LINE
5
355
100
AcDbEntity
8
0
100
AcDbLine
10
642.20000002265681
20
354.09198474639845
30
0
11
632.20000002265374
21
354.09198474632876
31
0
0
LINE
5
356
100
AcDbEntity
8
0
100
AcDbLine
10
642.20000002224947
20
664.89198474573175
30
0
11
642.20000002225288
21
661.89198474654756
31
0
0
LINE
5
357
100
AcDbEntity
8
0
100
AcDbLine
10
632.20000002218978
20
661.89198474654802
30
0
11
642.20000002224947
21
664.89198474573175
31
0
6
DASHED
0
LINE
5
358
100
AcDbEntity
8
0
100
AcDbLine
10
367.40000002225082
20
354.09198474652294
30
0
11
367.40000002225025
21
357.09198474652277
31
0
0
LINE
5
359
100
AcDbEntity
8
0
100
AcDbLine
10
370.90000002225099
20
372.09198474646973
30
0
11
367.40000002225082
21
372.09198474646973
31
0
0
LINE
5
360
100
AcDbEntity
8
0
100
AcDbLine
10
632.20000002218978
20
661.89198474654802
30
0
11
509.55000002225063
21
661.89198474654154
31
0
0
LINE
5
361
100
AcDbEntity
8
0
100
AcDbLine
10
377.40000002225094
20
354.09198474652277
30
0
11
367.40000002225082
21
354.09198474652294
31
0
0
LINE
5
362
100
AcDbEntity
8
0
100
AcDbLine
10
367.40000002225082
20
382.59198474646973
30
0
11
370.90000002225082
21
382.59198474646962
31
0
0
LINE
5
363
100
AcDbEntity
8
0
100
AcDbLine
10
352.40000002225088
20
357.09198474653368
30
0
11
367.40000002225025
21
357.09198474652277
31
0
0
LINE
5
364
100
AcDbEntity
8
0
100
AcDbLine
10
367.40000002225082
20
372.09198474646973
30
0
11
370.90000002225082
21
382.59198474646962
31
0
6
DASHED
0
LINE
5
365
100
AcDbEntity
8
0
100
AcDbLine
10
657.20000002225095
20
661.89198474654813
30
0
11
352.40000002225088
21
357.09198474653368
31
0
6
DASHED
0
LINE
5
366
100
AcDbEntity
8
0
100
AcDbLine
10
638.70000002229381
20
636.39198474654768
30
0
11
642.20000002229426
21
636.39198474654768
31
0
0
LINE
5
367
100
AcDbEntity
8
0
100
AcDbLine
10
499.55000002225114
20
664.89198476068168
30
0
11
509.55000002225086
21
664.89198476068213
31
0
0
LINE
5
368
100
AcDbEntity
8
0
100
AcDbLine
10
642.20000002229426
20
636.39198474654768
30
0
11
638.70000002229381
21
646.89198474654745
31
0
6
DASHED
0
LINE
5
369
100
AcDbEntity
8
0
100
AcDbLine
10
509.55000002225086
20
661.89198474654154
30
0
11
499.55000002225114
21
664.89198476068168
31
0
6
DASHED
0
LINE
5
370
100
AcDbEntity
8
0
100
AcDbLine
10
642.20000002230131
20
514.74198474643254
30
0
11
638.70000002230154
21
514.74198474643265
31
0
0
LINE
5
371
100
AcDbEntity
8
0
100
AcDbLine
10
352.40000002225099
20
661.89198474653381
30
0
11
352.40000002225088
21
357.09198474653368
31
0
0
LINE
5
372
100
AcDbEntity
8
0
100
AcDbLine
10
352.40000002225099
20
661.89198474653381
30
0
11
657.20000002233792
21
357.09198474630597
31
0
6
DASHED
0
LINE
5
373
100
AcDbEntity
8
0
100
AcDbLine
10
632.2000000222497
20
664.89198474654813
30
0
11
642.20000002224947
21
664.89198474573175
31
0
0
LINE
5
374
100
AcDbEntity
8
0
100
AcDbLine
10
499.55000002225086
20
661.89198474657474
30
0
11
499.55000002225114
21
664.89198476068168
31
0
0
LINE
5
375
100
AcDbEntity
8
0
100
AcDbLine
10
642.20000002229426
20
646.89198474654734
30
0
11
638.70000002229381
21
646.89198474654745
31
0
0
LINE
5
376
100
AcDbEntity
8
0
100
AcDbLine
10
632.20000002218978
20
661.89198474654802
30
0
11
632.2000000222497
21
664.89198474654813
31
0
0
LINE
5
377
100
AcDbEntity
8
0
100
AcDbLine
10
638.70000002229381
20
636.39198474654768
30
0
11
642.20000002229426
21
646.89198474654734
31
0
6
DASHED
0
LINE
5
378
100
AcDbEntity
8
0
100
AcDbLine
10
367.40000002225065
20
664.89198474653563
30
0
11
377.40000002225094
21
664.89198476109652
31
0
0
LINE
5
379
100
AcDbEntity
8
0
100
AcDbLine
10
642.20000002225288
20
661.89198474654756
30
0
11
632.2000000222497
21
664.89198474654813
31
0
6
DASHED
0
LINE
5
380
100
AcDbEntity
8
0
100
AcDbLine
10
638.70000002229415
20
382.59198474644063
30
0
11
642.20000002229426
21
382.59198474644029
31
0
0
LINE
5
381
100
AcDbEntity
8
0
100
AcDbLine
10
642.20000002264942
20
357.09198474631705
30
0
11
657.20000002233792
21
357.09198474630597
31
0
0
LINE
5
382
100
AcDbEntity
8
0
100
AcDbLine
10
377.40000002225025
20
357.09198474651521
30
0
11
499.55000002225114
21
357.09198474642369
31
0
0
LINE
5
383
100
AcDbEntity
8
0
100
AcDbLine
10
642.20000002228744
20
372.09198474645109
30
0
11
638.70000002229415
21
372.09198474644074
31
0
0
LINE
5
384
100
AcDbEntity
8
0
100
AcDbLine
10
642.20000002229438
20
504.24198474644294
30
0
11
638.70000002230154
21
514.74198474643265
31
0
6
DASHED
0
LINE
5
385
100
AcDbEntity
8
0
100
AcDbLine
10
369.15000002225088
20
504.24198474646937
30
0
11
365.65000002225071
21
514.7419847464696
31
0
6
DASHED
0
LINE
5
386
100
AcDbEntity
8
0
100
AcDbLine
10
657.20000002233792
20
357.09198474630597
30
0
11
657.20000002225095
21
661.89198474654813
31
0
0
LINE
5
387
100
AcDbEntity
8
0
100
AcDbLine
10
638.70000002230154
20
514.74198474643265
30
0
11
638.70000002230154
21
504.24198474643276
31
0
0
LINE
5
388
100
AcDbEntity
8
0
100
AcDbLine
10
638.70000002230154
20
504.24198474643276
30
0
11
642.20000002230131
21
514.74198474643254
31
0
6
DASHED
0
LINE
5
389
100
AcDbEntity
8
0
100
AcDbLine
10
642.20000002229438
20
504.24198474644294
30
0
11
642.20000002230131
21
514.74198474643254
31
0
0
LINE
5
390
100
AcDbEntity
8
0
100
AcDbLine
10
638.70000002229381
20
646.89198474654745
30
0
11
638.70000002229381
21
636.39198474654768
31
0
0
LINE
5
391
100
AcDbEntity
8
0
100
AcDbLine
10
509.55000002225086
20
664.89198476068213
30
0
11
509.55000002225086
21
661.89198474654154
31
0
0
LINE
5
392
100
AcDbEntity
8
0
100
AcDbLine
10
365.65000002225082
20
504.24198474646948
30
0
11
369.15000002225099
21
514.74198474646937
31
0
6
DASHED
0
ENDSEC
0
SECTION
2
OBJECTS
0
DICTIONARY
5
C
100
AcDbDictionary
3
ACAD_GROUP
350
D
3
ACAD_MLINESTYLE
350
17
0
DICTIONARY
5
D
100
AcDbDictionary
0
DICTIONARY
5
1A
330
C
100
AcDbDictionary
0
DICTIONARY
5
17
100
AcDbDictionary
0
ENDSEC
0
EOF
